<svg width="953" height="217" fill="none" xmlns="http://www.w3.org/2000/svg"><path d="M16.721 166.293 6 160.5V217h942V51.5h-17.419a4 4 0 0 0-3.551 2.159l-12.198 23.523a4 4 0 0 1-5.148 1.826l-20.297-8.837a4.003 4.003 0 0 1-2.14-2.24l-11.013-28.837a4.002 4.002 0 0 0-1.36-1.79l-14.46-10.684a4.01 4.01 0 0 1-1.269-1.572l-7.531-16.693A4 4 0 0 0 847.968 6h-27.519c-1.132 0-2.211.48-2.97 1.32L800.625 26l-21.054 20-22.527 23.16c-.22.226-.466.425-.734.594l-15.82 9.975a4.001 4.001 0 0 0-1.669 2.145l-14.396 44.18a4 4 0 0 1-3.352 2.736l-62.955 7.135c-.436.05-.877.027-1.305-.067l-31.872-6.971a4 4 0 0 1-2.645-1.971L609.337 103.5l-16.998-33.13a3.995 3.995 0 0 0-1.243-1.436L559.43 46.441a4.014 4.014 0 0 0-1.361-.623l-56.466-13.889a4 4 0 0 0-3.224.59l-18.888 13.008a4 4 0 0 1-1.505.632l-26.313 5.12a3.998 3.998 0 0 0-1.984 1.019L421.442 79a4.002 4.002 0 0 1-3.708.976l-41.92-10.36a4 4 0 0 0-.96-.116h-38.575a4 4 0 0 0-3.559 2.174l-15.829 30.851a3.996 3.996 0 0 1-1.427 1.559l-38.533 24.264a4.017 4.017 0 0 1-.501.268l-29.585 13.207a4.001 4.001 0 0 1-4.585-.957l-10.394-11.388a4.004 4.004 0 0 0-2.193-1.23l-34.414-6.675a4.057 4.057 0 0 0-.762-.073h-18.021a4 4 0 0 0-2.557.924l-24.399 20.281a4.018 4.018 0 0 0-.634.663l-12.444 16.456a3.997 3.997 0 0 1-1.252 1.087l-20.323 11.262a4.009 4.009 0 0 1-1.257.442l-27.412 4.747a3.997 3.997 0 0 1-1.582-.044l-20.06-4.631a4.004 4.004 0 0 1-1.477-.68l-14.11-10.426a3.998 3.998 0 0 0-3.24-.689l-26.245 5.787a4 4 0 0 1-2.763-.386Z" fill="url('#paint0_linear_468_6122')"/><g filter="url('#filter0_f_468_6122')"><path d="m6 160.5 10.721 5.793a4 4 0 0 0 2.763.386l26.246-5.787a3.998 3.998 0 0 1 3.238.689l14.111 10.426c.44.325.943.557 1.477.68l20.06 4.631c.519.12 1.057.135 1.582.044l27.412-4.747a4.009 4.009 0 0 0 1.257-.442l20.323-11.262a3.997 3.997 0 0 0 1.252-1.087l12.444-16.456c.185-.244.398-.467.634-.663l24.399-20.281a4 4 0 0 1 2.557-.924h18.021c.256 0 .511.025.762.073l34.414 6.675a4.004 4.004 0 0 1 2.193 1.23l10.394 11.388a4.001 4.001 0 0 0 4.585.957l29.585-13.207c.173-.077.34-.167.501-.268l38.533-24.264a3.996 3.996 0 0 0 1.427-1.559l15.829-30.851a4 4 0 0 1 3.559-2.174h38.575a4 4 0 0 1 .96.117l41.92 10.359a4.001 4.001 0 0 0 3.708-.976l28.247-26.702a3.998 3.998 0 0 1 1.984-1.02l26.313-5.119a4 4 0 0 0 1.505-.632l18.888-13.008a4 4 0 0 1 3.224-.59l56.466 13.889c.488.12.95.332 1.361.623l31.666 22.493c.524.372.95.864 1.243 1.435l16.998 33.131 12.959 23.416a4 4 0 0 0 2.645 1.971l31.872 6.971c.428.094.869.117 1.305.067l62.955-7.135a4 4 0 0 0 3.352-2.736l14.396-44.18a4.001 4.001 0 0 1 1.669-2.145l15.82-9.975c.268-.169.514-.368.734-.595L779.571 46l21.054-20 16.854-18.68a4.002 4.002 0 0 1 2.97-1.32h27.519a4 4 0 0 1 3.646 2.355l7.531 16.693a4.01 4.01 0 0 0 1.269 1.573l14.46 10.683a4.002 4.002 0 0 1 1.36 1.79l11.013 28.836a4.003 4.003 0 0 0 2.14 2.24l20.297 8.838a4 4 0 0 0 5.148-1.826l12.198-23.523a4 4 0 0 1 3.551-2.159H948" stroke="#BD47FB" stroke-width="2"/></g><path d="m6 160.5 10.721 5.793a4 4 0 0 0 2.763.386l26.246-5.787a3.998 3.998 0 0 1 3.238.689l14.111 10.426c.44.325.943.557 1.477.68l20.06 4.631c.519.12 1.057.135 1.582.044l27.412-4.747a4.009 4.009 0 0 0 1.257-.442l20.323-11.262a3.997 3.997 0 0 0 1.252-1.087l12.444-16.456c.185-.244.398-.467.634-.663l24.399-20.281a4 4 0 0 1 2.557-.924h18.021c.256 0 .511.025.762.073l34.414 6.675a4.004 4.004 0 0 1 2.193 1.23l10.394 11.388a4.001 4.001 0 0 0 4.585.957l29.585-13.207c.173-.077.34-.167.501-.268l38.533-24.264a3.996 3.996 0 0 0 1.427-1.559l15.829-30.851a4 4 0 0 1 3.559-2.174h38.575a4 4 0 0 1 .96.117l41.92 10.359a4.001 4.001 0 0 0 3.708-.976l28.247-26.702a3.998 3.998 0 0 1 1.984-1.02l26.313-5.119a4 4 0 0 0 1.505-.632l18.888-13.008a4 4 0 0 1 3.224-.59l56.466 13.889c.488.12.95.332 1.361.623l31.666 22.493c.524.372.95.864 1.243 1.435l16.998 33.131 12.959 23.416a4 4 0 0 0 2.645 1.971l31.872 6.971c.428.094.869.117 1.305.067l62.955-7.135a4 4 0 0 0 3.352-2.736l14.396-44.18a4.001 4.001 0 0 1 1.669-2.145l15.82-9.975c.268-.169.514-.368.734-.595L779.571 46l21.054-20 16.854-18.68a4.002 4.002 0 0 1 2.97-1.32h27.519a4 4 0 0 1 3.646 2.355l7.531 16.693a4.01 4.01 0 0 0 1.269 1.573l14.46 10.683a4.002 4.002 0 0 1 1.36 1.79l11.013 28.836a4.003 4.003 0 0 0 2.14 2.24l20.297 8.838a4 4 0 0 0 5.148-1.826l12.198-23.523a4 4 0 0 1 3.551-2.159H948" stroke="#BD47FB" stroke-width="2"/><defs><linearGradient id="paint0_linear_468_6122" x1="477" y1="6" x2="477" y2="217" gradientUnits="userSpaceOnUse"><stop stop-color="#BD47FB" stop-opacity=".1"/><stop offset="1" stop-color="#BD47FB" stop-opacity="0"/></linearGradient><filter id="filter0_f_468_6122" x=".524" y="0" width="952.476" height="183.421" filterUnits="userSpaceOnUse" color-interpolation-filters="sRGB"><feFlood flood-opacity="0" result="BackgroundImageFix"/><feBlend in="SourceGraphic" in2="BackgroundImageFix" result="shape"/><feGaussianBlur stdDeviation="2.5" result="effect1_foregroundBlur_468_6122"/></filter></defs></svg>