<svg width="138" height="38" fill="none" xmlns="http://www.w3.org/2000/svg"><path d="M4.52 34.58 1 32.415V37a1 1 0 0 0 1 1h135a1 1 0 0 0 1-1V19.62l-2.17 4.8a.998.998 0 0 1-.456.478l-2.872 1.471a1 1 0 0 1-1.386-.523l-3.049-7.725a.999.999 0 0 0-.93-.633h-2.32a1 1 0 0 1-.941-.66l-1.509-4.173a1 1 0 0 0-1.682-.331l-.901.996a.998.998 0 0 1-.741.329h-6.615a.997.997 0 0 1-.619-.215l-2.073-1.638a1 1 0 0 0-1.479.273l-3.441 5.765a1 1 0 0 1-1.795-.162l-3.77-10.075a1 1 0 0 0-.453-.525l-4.006-2.215a1 1 0 0 0-.636-.113l-4.625.71a1 1 0 0 1-.951-.388l-3.015-4.012a1 1 0 0 0-1.593-.007l-3.91 5.103a1 1 0 0 1-1.62-.047l-.684-1.007a1 1 0 0 0-1.67.024l-2.863 4.485a1 1 0 0 1-1.737-.09L67.7 1.95a1 1 0 0 0-1.817.063l-3.532 8.462a1 1 0 0 1-.923.615h-1.921a1 1 0 0 0-.915.596l-5.67 12.862a.998.998 0 0 1-.237.332l-6.619 6.099a1 1 0 0 1-1.305.043l-2.629-2.12a1 1 0 0 0-.9-.183l-4.93 1.397a1 1 0 0 0-.708.769l-.648 3.284a1 1 0 0 1-.98.806h-3.814a1 1 0 0 1-.755-.344l-4.536-5.225a1 1 0 0 0-1.478-.036l-5.552 5.798a1 1 0 0 1-1.346.09l-5.558-4.439a1 1 0 0 0-1.301.046l-3.904 3.598a1 1 0 0 1-1.201.116Z" fill="url('#paint0_linear_468_3055')"/><path d="m1 32.416 3.52 2.163a1 1 0 0 0 1.202-.116l3.904-3.598a1 1 0 0 1 1.301-.046l5.558 4.44a1 1 0 0 0 1.346-.09l5.552-5.8a1 1 0 0 1 1.478.037l4.536 5.225a1 1 0 0 0 .755.344h3.813a1 1 0 0 0 .981-.806l.648-3.284a1 1 0 0 1 .709-.769l4.929-1.397a1 1 0 0 1 .9.183l2.63 2.12a1 1 0 0 0 1.304-.043l6.619-6.099a.998.998 0 0 0 .237-.332l5.67-12.862a1 1 0 0 1 .915-.596h1.921a1 1 0 0 0 .923-.615l3.532-8.462A1 1 0 0 1 67.7 1.95l3.788 7.564a1 1 0 0 0 1.737.09l2.863-4.484a1 1 0 0 1 1.67-.024l.683 1.007a1 1 0 0 0 1.622.047l3.909-5.103a1 1 0 0 1 1.593.007l3.015 4.012a1 1 0 0 0 .95.388l4.626-.71a1 1 0 0 1 .636.113l4.006 2.215a1 1 0 0 1 .453.525l3.77 10.075a1 1 0 0 0 1.795.162l3.441-5.765a1 1 0 0 1 1.479-.273l2.073 1.638c.176.14.394.215.619.215h6.615c.282 0 .552-.12.741-.33l.901-.995a1 1 0 0 1 1.682.33l1.509 4.174a1 1 0 0 0 .941.66h2.32c.411 0 .78.25.93.633l3.049 7.725a1 1 0 0 0 1.386.523l2.799-1.433c.245-.126.428-.348.505-.613l1.379-4.78" stroke="#11CABE" stroke-linecap="round"/><defs><linearGradient id="paint0_linear_468_3055" x1="69.5" y1="0" x2="69.5" y2="38" gradientUnits="userSpaceOnUse"><stop offset=".26" stop-color="#BCFFE9" stop-opacity=".4"/><stop offset="1" stop-opacity="0"/></linearGradient></defs></svg>