<svg width="138" height="38" fill="none" xmlns="http://www.w3.org/2000/svg"><path d="M5.335 34.106H1V37a1 1 0 0 0 1 1h135a1 1 0 0 0 1-1V9.229l-5.412 12.711c-.384.901-1.7.77-1.899-.189l-1.561-7.518a1 1 0 0 0-1.502-.65l-2.531 1.552a1 1 0 0 1-1.365-.314l-2.161-3.384a1 1 0 0 0-1.52-.197l-7.814 7.187a.999.999 0 0 1-1.058.188l-1.453-.6a1 1 0 0 0-1.283.49l-4.035 8.374c-.374.778-1.493.747-1.824-.05l-3.272-7.884a.995.995 0 0 0-.088-.165l-4.204-6.414a1 1 0 0 0-1.606-.09l-1.91 2.3a1 1 0 0 1-1.297.21l-5.184-3.232a1 1 0 0 0-1.497.597l-1.692 6.524a1.002 1.002 0 0 1-.16.337l-2.09 2.878a1 1 0 0 1-1.54.095l-2.671-2.86a1 1 0 0 0-.612-.31l-2.354-.284a1 1 0 0 1-.822-.657L67.396 6.107a1 1 0 0 0-1.724-.289l-1.91 2.393a1 1 0 0 1-1.727-.297L60.06 2.199c-.287-.83-1.428-.913-1.833-.133L54.581 9.09a1 1 0 0 1-.888.54h-5.517a1 1 0 0 0-.834.449l-1.784 2.701a1 1 0 0 1-1.669 0l-.874-1.323a1 1 0 0 0-1.797.282l-6.356 22.694a1 1 0 0 1-.59.659l-3.697 1.484a1 1 0 0 1-1.26-.467l-2.76-5.318a1 1 0 0 0-1.524-.31l-6.764 5.586a1 1 0 0 1-1.555-.374L15.21 32.22a1.002 1.002 0 0 0-.134-.225l-4.285-5.4a1 1 0 0 0-1.704.231l-2.831 6.67a1 1 0 0 1-.92.609Z" fill="url('#paint0_linear_468_3080')"/><path d="M1 34.106h4.335a1 1 0 0 0 .92-.61l2.832-6.669a1 1 0 0 1 1.704-.23l4.285 5.399c.054.069.1.144.134.225l1.502 3.472a1 1 0 0 0 1.555.374l6.764-5.587a1 1 0 0 1 1.524.31l2.76 5.319a1 1 0 0 0 1.26.467l3.697-1.484a1 1 0 0 0 .59-.659l6.356-22.694a1 1 0 0 1 1.797-.282l.874 1.323a1 1 0 0 0 1.669 0l1.784-2.701a1 1 0 0 1 .834-.45h5.517a1 1 0 0 0 .888-.539l3.645-7.024c.404-.78 1.546-.697 1.833.133l1.977 5.715a1 1 0 0 0 1.726.297l1.91-2.393a1 1 0 0 1 1.724.289l4.187 11.767a1 1 0 0 0 .822.657l2.354.284a1 1 0 0 1 .612.31l2.67 2.86a1 1 0 0 0 1.54-.095l2.092-2.878c.073-.102.127-.216.159-.337l1.692-6.524a1 1 0 0 1 1.497-.597l5.183 3.231a1 1 0 0 0 1.299-.21l1.91-2.3a1 1 0 0 1 1.605.091l4.204 6.414a.995.995 0 0 1 .088.165l3.272 7.883c.331.798 1.45.829 1.824.05l4.035-8.373a1 1 0 0 1 1.283-.49l1.453.6a.999.999 0 0 0 1.058-.188l7.814-7.187a1 1 0 0 1 1.52.197l2.161 3.384a1 1 0 0 0 1.365.314l2.531-1.552a1 1 0 0 1 1.502.65l1.506 7.253c.203.982 1.564 1.087 1.915.147l4.636-12.404" stroke="#FA2256" stroke-linecap="round"/><defs><linearGradient id="paint0_linear_468_3080" x1="69.5" y1="0" x2="69.5" y2="38" gradientUnits="userSpaceOnUse"><stop offset=".104" stop-color="#FCE2ED" stop-opacity=".38"/><stop offset="1" stop-color="#2C2C2C" stop-opacity="0"/></linearGradient></defs></svg>