<svg width="24" height="24" fill="none" xmlns="http://www.w3.org/2000/svg"><circle cx="12" cy="12" r="12" fill="#34384C"/><g filter="url('#filter0_f_468_5904')"><path d="M8.393 11.906a.476.476 0 0 0 .418.253h2.71v5.351c0 .27.215.49.479.49s.478-.22.478-.49V12.16h2.71a.475.475 0 0 0 .418-.253.499.499 0 0 0-.013-.498l-3.188-5.18A.476.476 0 0 0 12 6a.476.476 0 0 0-.405.228l-3.189 5.18a.503.503 0 0 0-.013.498" fill="#FA2256"/></g><path d="M8.393 11.906a.476.476 0 0 0 .418.253h2.71v5.351c0 .27.215.49.479.49s.478-.22.478-.49V12.16h2.71a.475.475 0 0 0 .418-.253.499.499 0 0 0-.013-.498l-3.188-5.18A.476.476 0 0 0 12 6a.476.476 0 0 0-.405.228l-3.189 5.18a.503.503 0 0 0-.013.498" fill="#FA2256"/><defs><filter id="filter0_f_468_5904" x="0" y="0" width="24" height="24" filterUnits="userSpaceOnUse" color-interpolation-filters="sRGB"><feFlood flood-opacity="0" result="BackgroundImageFix"/><feBlend in="SourceGraphic" in2="BackgroundImageFix" result="shape"/><feGaussianBlur stdDeviation="2" result="effect1_foregroundBlur_468_5904"/></filter></defs></svg>