<svg width="24" height="24" fill="none" xmlns="http://www.w3.org/2000/svg"><circle cx="12" cy="12" r="12" fill="#34384C"/><g filter="url('#filter0_f_468_5918')"><path d="M15.606 12.094a.476.476 0 0 0-.418-.253h-2.71V6.49c0-.27-.214-.49-.478-.49a.484.484 0 0 0-.479.49v5.351h-2.71a.475.475 0 0 0-.418.253.499.499 0 0 0 .013.498l3.189 5.18c.088.142.24.228.405.228a.476.476 0 0 0 .405-.228l3.188-5.18a.503.503 0 0 0 .013-.498" fill="#11CABE"/></g><path d="M15.606 12.094a.476.476 0 0 0-.418-.253h-2.71V6.49c0-.27-.214-.49-.478-.49a.484.484 0 0 0-.479.49v5.351h-2.71a.475.475 0 0 0-.418.253.499.499 0 0 0 .013.498l3.189 5.18c.088.142.24.228.405.228a.476.476 0 0 0 .405-.228l3.188-5.18a.503.503 0 0 0 .013-.498" fill="#11CABE"/><defs><filter id="filter0_f_468_5918" x="0" y="0" width="24" height="24" filterUnits="userSpaceOnUse" color-interpolation-filters="sRGB"><feFlood flood-opacity="0" result="BackgroundImageFix"/><feBlend in="SourceGraphic" in2="BackgroundImageFix" result="shape"/><feGaussianBlur stdDeviation="2" result="effect1_foregroundBlur_468_5918"/></filter></defs></svg>