<svg width="44" height="44" fill="none" xmlns="http://www.w3.org/2000/svg"><g clip-path="url('#clip0_468_3050')"><path d="M43.342 27.32c-2.94 11.793-14.887 18.96-26.662 16.021C4.888 40.401-2.28 28.455.66 16.681 3.598 4.887 15.527-2.28 27.32.66c11.776 2.922 18.961 14.868 16.022 26.66Z" fill="url('#paint0_linear_468_3050')"/><path d="M32.476 19.258c.43-2.921-1.788-4.503-4.847-5.551l.997-3.97-2.407-.602-.962 3.867a64.448 64.448 0 0 0-1.942-.447l.962-3.884-2.406-.602-.98 3.954c-.532-.12-1.048-.241-1.546-.361v-.018l-3.335-.825-.636 2.579s1.788.412 1.753.43c.98.24 1.152.893 1.117 1.409l-1.134 4.52c.069.017.155.034.258.086a1.429 1.429 0 0 1-.258-.069l-1.581 6.325c-.12.292-.43.74-1.1.567.017.035-1.753-.43-1.753-.43l-1.203 2.768 3.145.79c.584.155 1.152.293 1.719.447l-.997 4.005 2.406.601.997-3.97c.653.172 1.306.344 1.925.499l-.98 3.953 2.407.601.996-4.004c4.125.773 7.22.464 8.508-3.266 1.049-2.99-.051-4.727-2.217-5.861 1.598-.36 2.784-1.41 3.094-3.54Zm-5.517 7.735c-.74 2.99-5.793 1.375-7.425.962l1.323-5.31c1.633.412 6.892 1.22 6.102 4.348Zm.756-7.786c-.688 2.733-4.881 1.34-6.24.997l1.204-4.813c1.358.344 5.74.98 5.036 3.816Z" fill="#fff"/></g><defs><linearGradient id="paint0_linear_468_3050" x1="21.988" y1="-.01" x2="21.988" y2="43.996" gradientUnits="userSpaceOnUse"><stop stop-color="#F9AA4B"/><stop offset="1" stop-color="#F7931A"/></linearGradient><clipPath id="clip0_468_3050"><path fill="#fff" d="M0 0h44v44H0z"/></clipPath></defs></svg>