<svg width="32" height="32" fill="none" xmlns="http://www.w3.org/2000/svg"><g clip-path="url('#clip0_468_7093')"><circle cx="16" cy="16" r="16" fill="#7F6EE9"/><path d="M16.355 4.034v.011c.011.057.011.125.011.194v8.19c-.011.045-.045.057-.08.08-.238.113-.465.215-.704.317-.33.148-.67.307-1 .455l-1.192.545c-.33.148-.66.296-.977.443-.386.182-.784.352-1.17.534-.33.148-.66.307-1 .454-.273.126-.545.24-.806.364-.023.011-.046.023-.069.023-.01 0-.01 0-.022-.012l.306-.51c.591-.978 1.17-1.943 1.761-2.92.625-1.045 1.261-2.09 1.886-3.136.58-.965 1.17-1.93 1.75-2.896.42-.705.851-1.409 1.272-2.113.011-.023.022-.034.022-.057h.012c-.012.011 0 .023 0 .034Z" fill="#F3F3F3"/><path d="m23.329 15.633.011.011-1.67.988-5.248 3.101c-.023.012-.046.023-.057.035-.034 0-.034-.035-.034-.046V12.6c0-.034 0-.08.011-.114.012-.045.046-.034.08-.023.148.068.307.137.454.205.443.204.886.409 1.33.602.386.17.76.352 1.147.522.386.17.772.353 1.159.523.329.148.67.307 1 .454.328.148.67.307.999.455.261.113.522.238.784.352 0 .034.011.045.034.057Z" fill="#8A8DA7"/><path d="M16.354 26.822c0 .011-.012.023-.012.034h-.011c0-.023-.023-.034-.034-.057-.704-.988-1.409-1.988-2.113-2.976-.716-1.011-1.443-2.034-2.158-3.045-.693-.976-1.398-1.965-2.09-2.942-.182-.261-.364-.511-.546-.772-.011-.023-.023-.034-.045-.068.034 0 .057.022.068.034.988.579 1.965 1.158 2.953 1.738 1.136.67 2.261 1.34 3.397 2.01l.58.341c.022.023.022.046.022.068v5.476c0 .057 0 .113-.011.159Z" fill="#F3F3F3"/><path d="M9.333 15.655v-.011c.364-.16.716-.33 1.08-.489.465-.215.93-.42 1.396-.636.353-.159.716-.33 1.068-.488.523-.239 1.034-.466 1.556-.705.353-.159.705-.318 1.068-.488.25-.114.512-.227.761-.34.023-.012.057-.024.069-.046.011 0 .011.011 0 .022v7.214c0 .034-.012.068.011.09-.023.035-.045 0-.057-.01-.102-.057-.204-.114-.306-.182-2.193-1.295-4.397-2.602-6.59-3.897-.01-.011-.033-.023-.056-.034ZM23.305 16.996h.012c0 .022-.023.045-.034.068-2.09 2.942-4.18 5.895-6.271 8.838-.216.306-.443.613-.659.92-.011-.011-.011-.023-.011-.034v-5.68c.477-.284.943-.557 1.42-.84 1.84-1.091 3.68-2.17 5.51-3.261.01.011.022 0 .033-.011Z" fill="#C5C8D9"/><path d="M16.342 12.474V4.136c0-.034-.011-.057.011-.09 2.306 3.828 4.612 7.644 6.907 11.473.023.034.057.08.068.125-.159-.057-.306-.137-.454-.205-.182-.08-.375-.17-.557-.25-.113-.056-.238-.102-.352-.159-.193-.09-.386-.17-.58-.261a4.565 4.565 0 0 1-.34-.159l-.75-.34c-.125-.058-.25-.114-.386-.171l-.545-.239c-.114-.045-.227-.102-.341-.159l-.75-.34c-.125-.057-.25-.114-.386-.171l-.545-.239c-.125-.056-.239-.113-.364-.17a11.539 11.539 0 0 0-.659-.295c.034-.012.023-.012.023-.012Z" fill="#C5C8D9"/></g><defs><clipPath id="clip0_468_7093"><path fill="#fff" d="M0 0h32v32H0z"/></clipPath></defs></svg>