<svg width="44" height="44" fill="none" xmlns="http://www.w3.org/2000/svg"><g clip-path="url('#clip0_468_3068')"><circle cx="22" cy="22" r="22" fill="#7F6EE9"/><path d="M22.487 5.547v.015c.016.079.016.172.016.266V17.09c-.016.062-.063.078-.11.11-.328.155-.64.296-.968.437-.453.203-.922.421-1.375.624l-1.64.75c-.453.203-.906.406-1.343.61-.531.25-1.078.483-1.609.733-.453.203-.906.422-1.374.625-.375.172-.75.328-1.11.5a.221.221 0 0 1-.093.031c-.016 0-.016 0-.031-.015l.421-.703c.813-1.344 1.61-2.671 2.421-4.015.86-1.437 1.734-2.874 2.593-4.31.797-1.328 1.61-2.656 2.406-3.984.578-.968 1.171-1.936 1.75-2.905.015-.031.03-.047.03-.078h.016c-.016.016 0 .031 0 .047Z" fill="#F3F3F3"/><path d="m32.077 21.494.015.016-2.296 1.359-7.216 4.264c-.031.016-.062.031-.078.047-.047 0-.047-.047-.047-.063V17.325c0-.047 0-.11.016-.156.015-.063.062-.047.109-.031.203.093.422.187.625.28.609.282 1.218.563 1.827.828.531.235 1.047.485 1.578.719.531.234 1.062.484 1.593.719.453.203.922.421 1.375.624.453.203.921.422 1.374.625.36.156.719.328 1.078.484 0 .047.016.063.047.078Z" fill="#8A8DA7"/><path d="M22.486 36.88c0 .016-.016.031-.016.047h-.015c0-.031-.031-.047-.047-.078-.969-1.359-1.937-2.733-2.905-4.092-.984-1.39-1.984-2.796-2.968-4.186-.953-1.344-1.921-2.703-2.874-4.046-.25-.36-.5-.703-.75-1.062-.015-.031-.031-.047-.062-.094.046 0 .078.031.093.047 1.36.797 2.703 1.593 4.061 2.39 1.562.921 3.109 1.843 4.67 2.764l.797.47c.032.03.032.062.032.093v7.528c0 .079 0 .157-.016.22Z" fill="#F3F3F3"/><path d="M12.833 21.526v-.016c.5-.218.984-.453 1.484-.671.64-.297 1.28-.578 1.921-.875.484-.219.984-.453 1.468-.672.719-.328 1.422-.64 2.14-.968.485-.219.969-.438 1.468-.672.344-.156.703-.312 1.047-.468.031-.016.078-.032.094-.063.015 0 .015.016 0 .031v9.919c0 .047-.016.094.015.125-.03.047-.062 0-.078-.016-.14-.078-.28-.156-.421-.25-3.015-1.78-6.045-3.577-9.06-5.357-.015-.016-.047-.032-.078-.047ZM32.046 23.37h.015c0 .03-.031.062-.047.093-2.874 4.045-5.748 8.107-8.622 12.152-.296.422-.609.843-.906 1.265-.015-.015-.015-.031-.015-.047V29.024c.656-.391 1.296-.766 1.952-1.156 2.53-1.5 5.06-2.984 7.576-4.483.015.015.031 0 .047-.016Z" fill="#C5C8D9"/><path d="M22.47 17.152V5.687c0-.046-.015-.078.016-.125 3.171 5.264 6.342 10.513 9.497 15.776.031.047.078.11.094.172-.219-.078-.422-.187-.625-.28-.25-.11-.515-.235-.765-.345-.157-.078-.328-.14-.485-.218-.265-.125-.53-.235-.796-.36-.156-.062-.313-.14-.469-.218l-1.03-.469c-.172-.078-.344-.156-.532-.234l-.75-.328a6.308 6.308 0 0 1-.468-.219l-1.031-.468c-.172-.078-.344-.156-.531-.235l-.75-.328c-.172-.078-.328-.156-.5-.234-.296-.14-.593-.281-.905-.406.046-.016.03-.016.03-.016Z" fill="#C5C8D9"/></g><defs><clipPath id="clip0_468_3068"><path fill="#fff" d="M0 0h44v44H0z"/></clipPath></defs></svg>