<svg width="20" height="20" fill="none" xmlns="http://www.w3.org/2000/svg"><g clip-path="url('#clip0_468_6139')"><path d="M19.983 9.997c0 5.495-4.455 9.95-9.95 9.95-5.496 0-9.951-4.455-9.951-9.95 0-5.496 4.455-9.95 9.95-9.95 5.496 0 9.95 4.454 9.95 9.95Z" fill="#1BA27A"/><path d="M14.702 5.064H5.28v2.275h3.574v3.343h2.275V7.339h3.573V5.064Z" fill="#fff"/><path d="M10.012 11.038c-2.956 0-5.352-.468-5.352-1.045s2.396-1.045 5.352-1.045c2.957 0 5.353.468 5.353 1.045s-2.396 1.045-5.353 1.045Zm6.01-.871c0-.744-2.69-1.348-6.01-1.348-3.319 0-6.01.604-6.01 1.348 0 .655 2.087 1.201 4.852 1.322v4.8h2.274V11.49c2.787-.117 4.895-.665 4.895-1.324Z" fill="#fff"/></g><defs><clipPath id="clip0_468_6139"><path fill="#fff" d="M0 0h20v20H0z"/></clipPath></defs></svg>