<svg width="32" height="32" fill="none" xmlns="http://www.w3.org/2000/svg"><g clip-path="url('#clip0_468_7079')"><path d="M31.521 19.87c-2.137 8.575-10.826 13.788-19.39 11.65C3.555 29.384-1.659 20.695.479 12.13 2.617 3.556 11.293-1.658 19.87.48c8.564 2.125 13.79 10.813 11.652 19.39Z" fill="url('#paint0_linear_468_7079')"/><path d="M23.618 14.006c.312-2.125-1.3-3.275-3.525-4.037l.725-2.888-1.75-.437-.7 2.812a46.734 46.734 0 0 0-1.413-.325l.7-2.825-1.75-.437-.712 2.875a78.289 78.289 0 0 1-1.125-.263V8.47l-2.425-.6-.463 1.875s1.3.3 1.275.312c.713.175.838.65.813 1.025l-.825 3.288c.05.012.112.025.187.062-.062-.012-.125-.025-.187-.05l-1.15 4.6c-.088.213-.313.538-.8.413.012.025-1.275-.313-1.275-.313l-.875 2.013 2.287.575c.425.112.838.212 1.25.325l-.725 2.912 1.75.438.725-2.888c.475.125.95.25 1.4.363l-.712 2.875 1.75.437.725-2.912c3 .562 5.25.337 6.187-2.375.763-2.175-.037-3.438-1.612-4.263 1.162-.262 2.025-1.025 2.25-2.575Zm-4.013 5.625c-.537 2.175-4.212 1-5.4.7l.963-3.862c1.187.3 5.012.887 4.437 3.162Zm.55-5.662c-.5 1.987-3.55.975-4.537.725l.875-3.5c.987.25 4.175.712 3.662 2.775Z" fill="#fff"/></g><defs><linearGradient id="paint0_linear_468_7079" x1="15.991" y1="-.008" x2="15.991" y2="31.997" gradientUnits="userSpaceOnUse"><stop stop-color="#F9AA4B"/><stop offset="1" stop-color="#F7931A"/></linearGradient><clipPath id="clip0_468_7079"><path fill="#fff" d="M0 0h32v32H0z"/></clipPath></defs></svg>