<svg width="20" height="20" fill="none" xmlns="http://www.w3.org/2000/svg"><g clip-path="url('#clip0_468_5994')"><path d="M19.7 12.418c-1.335 5.36-6.766 8.619-12.118 7.283C2.222 18.364-1.037 12.934.3 7.58A9.994 9.994 0 0 1 12.419.3c5.352 1.328 8.618 6.758 7.282 12.118Z" fill="url('#paint0_linear_468_5994')"/><path d="M14.762 8.754c.195-1.328-.813-2.047-2.203-2.524l.453-1.804-1.094-.274-.438 1.758c-.289-.07-.585-.14-.882-.203l.437-1.766-1.094-.273-.445 1.797c-.242-.055-.476-.11-.703-.164v-.008l-1.516-.375-.289 1.172s.813.187.797.195c.445.11.524.406.508.64L7.777 8.98c.032.008.07.016.118.04a.65.65 0 0 1-.118-.032l-.718 2.875c-.055.133-.196.336-.5.258.007.016-.797-.195-.797-.195l-.547 1.258 1.43.359c.265.07.523.133.78.203l-.452 1.82 1.093.274.454-1.805c.296.078.593.156.875.227l-.446 1.797 1.094.273.453-1.82c1.875.351 3.281.21 3.867-1.485.477-1.359-.023-2.148-1.008-2.664.727-.164 1.266-.64 1.407-1.61Zm-2.508 3.516c-.336 1.359-2.633.625-3.375.437l.601-2.414c.743.188 3.133.555 2.774 1.977Zm.344-3.54c-.313 1.243-2.22.61-2.836.454l.547-2.188c.617.156 2.609.445 2.289 1.734Z" fill="#fff"/></g><defs><linearGradient id="paint0_linear_468_5994" x1="9.995" y1="-.005" x2="9.995" y2="19.998" gradientUnits="userSpaceOnUse"><stop stop-color="#F9AA4B"/><stop offset="1" stop-color="#F7931A"/></linearGradient><clipPath id="clip0_468_5994"><path fill="#fff" d="M0 0h20v20H0z"/></clipPath></defs></svg>