<svg width="20" height="20" fill="none" xmlns="http://www.w3.org/2000/svg"><g clip-path="url('#clip0_468_6156')"><circle cx="10" cy="10" r="10" fill="#7F6EE9"/><path d="M10.221 2.521v.007c.008.036.008.079.008.121v5.12c-.008.027-.029.035-.05.049-.15.07-.291.135-.44.199-.206.092-.42.191-.625.284l-.746.34c-.206.093-.411.185-.61.277-.242.114-.49.22-.731.334-.206.092-.412.192-.625.284-.17.078-.341.15-.504.227a.1.1 0 0 1-.043.014c-.007 0-.007 0-.014-.007l.192-.32c.369-.61.73-1.213 1.1-1.824.39-.653.788-1.306 1.179-1.96.362-.603.73-1.206 1.093-1.81.263-.44.532-.88.795-1.32.007-.015.014-.022.014-.036h.007c-.007.007 0 .014 0 .021Z" fill="#F3F3F3"/><path d="m14.58 9.77.007.008-1.044.617-3.28 1.939a.155.155 0 0 0-.036.02c-.02 0-.02-.02-.02-.028V7.875c0-.022 0-.05.006-.071.007-.029.029-.022.05-.014l.284.127c.277.128.554.256.83.377.242.106.476.22.718.326.241.107.482.22.724.327.206.092.419.192.625.284.205.092.418.192.624.284.164.07.327.149.49.22 0 .021.007.028.022.035Z" fill="#8A8DA7"/><path d="M10.22 16.764c0 .007-.007.014-.007.02h-.007c0-.013-.014-.02-.021-.035-.44-.617-.88-1.242-1.32-1.86l-1.35-1.903-1.306-1.838c-.114-.164-.227-.32-.34-.483-.008-.014-.015-.022-.03-.043.022 0 .036.014.043.021.618.362 1.229.725 1.846 1.087.71.418 1.413.837 2.123 1.256l.362.213c.015.014.015.029.015.043v3.422c0 .036 0 .071-.008.1Z" fill="#F3F3F3"/><path d="M5.833 9.784v-.007c.227-.1.447-.206.674-.305.292-.135.583-.263.874-.398.22-.099.447-.205.667-.305.327-.149.646-.291.973-.44.22-.1.44-.199.667-.305.156-.071.32-.142.476-.213.014-.007.035-.015.043-.029.007 0 .007.007 0 .014v4.509c0 .021-.008.042.007.057-.015.02-.029 0-.036-.008a2.703 2.703 0 0 1-.192-.113c-1.37-.81-2.747-1.626-4.117-2.435a.155.155 0 0 0-.036-.022ZM14.566 10.622h.007c0 .014-.014.028-.021.043-1.306 1.839-2.613 3.685-3.92 5.523-.134.192-.276.384-.411.576-.007-.008-.007-.015-.007-.022v-3.55c.298-.177.59-.348.887-.525 1.15-.682 2.3-1.356 3.444-2.038.007.007.014 0 .021-.007Z" fill="#C5C8D9"/><path d="M10.213 7.796V2.585c0-.021-.007-.035.008-.057 1.44 2.393 2.882 4.779 4.316 7.171.014.021.036.05.043.078-.1-.035-.192-.085-.284-.128-.114-.05-.234-.106-.348-.156-.071-.035-.15-.064-.22-.1-.12-.056-.242-.106-.362-.162-.071-.029-.142-.064-.213-.1l-.469-.213a8.095 8.095 0 0 0-.241-.106l-.341-.15c-.071-.028-.142-.063-.213-.099l-.469-.213a8.095 8.095 0 0 0-.241-.106l-.34-.15c-.079-.035-.15-.07-.228-.106-.135-.064-.27-.128-.412-.184.021-.008.014-.008.014-.008Z" fill="#C5C8D9"/></g><defs><clipPath id="clip0_468_6156"><path fill="#fff" d="M0 0h20v20H0z"/></clipPath></defs></svg>