<svg width="44" height="44" fill="none" xmlns="http://www.w3.org/2000/svg"><g clip-path="url('#clip0_468_3093')"><path d="M43.96 21.992c0 12.09-9.8 21.89-21.89 21.89S.18 34.083.18 21.993 9.98.102 22.07.102s21.89 9.8 21.89 21.89Z" fill="#1BA27A"/><path d="M32.344 11.14H11.616v5.004h7.862V23.5h5.004v-7.356h7.862V11.14Z" fill="#fff"/><path d="M22.028 24.283c-6.504 0-11.777-1.03-11.777-2.3 0-1.269 5.273-2.299 11.777-2.299s11.776 1.03 11.776 2.3c0 1.27-5.272 2.299-11.776 2.299Zm13.223-1.916c0-1.637-5.92-2.965-13.223-2.965-7.303 0-13.223 1.328-13.223 2.965 0 1.442 4.59 2.643 10.674 2.91v10.558h5.003V25.281c6.13-.258 10.769-1.465 10.769-2.914Z" fill="#fff"/></g><defs><clipPath id="clip0_468_3093"><path fill="#fff" d="M0 0h44v44H0z"/></clipPath></defs></svg>