<svg width="44" height="44" fill="none" xmlns="http://www.w3.org/2000/svg"><g clip-path="url('#clip0_468_3115')"><circle cx="22" cy="22" fill="#F3BA2F" r="22"/><path d="M16.303 19.66 22 13.963l5.7 5.7 3.314-3.316L22 7.333l-9.011 9.012 3.314 3.314ZM7.333 22l3.315-3.315L13.962 22l-3.314 3.314L7.333 22Zm8.97 2.341L22 30.038l5.699-5.7 3.316 3.313-.001.002L22 36.667l-9.011-9.011-.005-.005 3.32-3.31h-.001Zm13.734-2.34 3.315-3.314L36.666 22l-3.314 3.315-3.315-3.314Z" fill="#fff"/><path d="M25.362 21.998h.001L22 18.635l-2.486 2.485-.285.286-.59.589-.004.005.005.004L22 25.365l3.363-3.363.002-.002-.003-.002" fill="#fff"/></g><defs><clipPath id="clip0_468_3115"><path fill="#fff" d="M0 0h44v44H0z"/></clipPath></defs></svg>