<svg width="24" height="25" fill="none" xmlns="http://www.w3.org/2000/svg"><g clip-path="url('#clip0_468_6802')"><circle cx="12" cy="12.5" r="12" fill="#fff"/><path fill-rule="evenodd" clip-rule="evenodd" d="M12 24.5c-6.628 0-12-5.372-12-12S5.372.5 12 .5s12 5.372 12 12-5.372 12-12 12Zm4.875-9.634c0-1.893-1.182-2.961-3.947-3.627v-3.33c.855.175 1.673.543 2.473 1.122l1.02-1.648A7.118 7.118 0 0 0 13 6.051V5h-1.583v1.016c-2.274.176-3.82 1.473-3.82 3.365 0 1.98 1.237 2.944 3.893 3.61v3.434c-1.183-.175-2.165-.7-3.202-1.507l-1.164 1.595a8.621 8.621 0 0 0 4.293 1.735V20h1.583v-1.735c2.31-.192 3.874-1.472 3.874-3.4ZM11.49 10.87c-1.4-.402-1.745-.876-1.745-1.612 0-.77.6-1.384 1.746-1.472l-.001 3.084Zm3.239 4.118c0 .841-.655 1.42-1.801 1.507v-3.172c1.419.404 1.8.877 1.8 1.665Z" fill="#1E68F6"/></g><defs><clipPath id="clip0_468_6802"><path fill="#fff" transform="translate(0 .5)" d="M0 0h24v24H0z"/></clipPath></defs></svg>