<svg width="24" height="24" fill="none" xmlns="http://www.w3.org/2000/svg"><path d="m20.828 16.712-1.094-.729V9.656c0-4.027-3.095-7.345-7.03-7.702V.704a.703.703 0 0 0-1.407 0v1.25C7.36 2.311 4.266 5.63 4.266 9.656v6.327l-1.094.729a.703.703 0 0 0-.313.585v2.812c0 .389.315.703.704.703h4.634C8.527 22.623 10.107 24 12 24c1.894 0 3.473-1.377 3.803-3.188h4.634a.703.703 0 0 0 .704-.703v-2.812a.703.703 0 0 0-.313-.585ZM12 22.594a2.469 2.469 0 0 1-2.36-1.782h4.72A2.469 2.469 0 0 1 12 22.595Zm7.734-3.188H4.266v-1.733l1.093-.729a.703.703 0 0 0 .313-.585V9.656A6.335 6.335 0 0 1 12 3.328a6.335 6.335 0 0 1 6.328 6.328v6.703c0 .235.118.455.313.585l1.093.73v1.732Z" fill="#fff"/><circle cx="18" cy="6" r="4" fill="#1E68F6"/></svg>