<svg width="372" height="178" fill="none" xmlns="http://www.w3.org/2000/svg"><path transform="matrix(-1 0 0 1 372 0)" fill="url('#paint0_linear_468_3126')" d="M0 0h372v178H0z"/><circle cx="232" cy="89" r="18.5" stroke="#fff"/><path d="M228.746 96.759a.811.811 0 0 1-.081-1.072l.081-.092L235.473 89l-6.727-6.595a.811.811 0 0 1-.081-1.072l.081-.092a.852.852 0 0 1 1.093-.08l.094.08 7.321 7.177c.298.292.325.75.081 1.072l-.081.092-7.321 7.177a.851.851 0 0 1-1.187 0Z" fill="#fff"/><defs><linearGradient id="paint0_linear_468_3126" x1="-610767000" y1="5315660000000000" x2="-610767000" y2="5315660000000000" gradientUnits="userSpaceOnUse"><stop stop-color="#141518"/><stop offset="1" stop-color="#212432" stop-opacity="0"/></linearGradient></defs></svg>