<svg width="955" height="226" fill="none" xmlns="http://www.w3.org/2000/svg"><path d="M33.326 97.34 6 81v145h943V66l-9.622-9.802A4 4 0 0 0 936.524 55h-26.57c-.362 0-.722.05-1.071.146l-38.684 10.748c-.254.07-.501.166-.736.285l-14.243 7.208a4 4 0 0 1-4.183-.352l-24.172-17.858a3.971 3.971 0 0 0-.502-.316l-38.84-20.602a4.022 4.022 0 0 1-.889-.64L759.4 7.606a4 4 0 0 0-2.763-1.107h-33.426a4 4 0 0 0-3.347 1.81l-15.628 23.88a4 4 0 0 1-3.347 1.81h-28.607a4 4 0 0 0-3.397 1.887L644.865 74.5l-13.539 21.629a4 4 0 0 1-2.429 1.76l-19.892 4.929c-.484.12-.987.149-1.481.084l-40.912-5.359a3.994 3.994 0 0 1-.65-.14l-53.393-16.319a4.012 4.012 0 0 1-.538-.207L480.884 66.18a3.966 3.966 0 0 1-.722-.439l-27.381-20.92a4.002 4.002 0 0 0-2.429-.822h-30.746a4 4 0 0 0-1.702.38l-21.879 10.287c-.467.22-.888.528-1.238.907l-23.1 25.03a3.996 3.996 0 0 0-.612.874l-10.403 20.081a3.999 3.999 0 0 1-2.287 1.954L323.933 115l-48.024 22.184a3.997 3.997 0 0 1-3.498-.07L229.153 115l-29.449-16.521a4 4 0 0 0-3.574-.17l-36.937 16.326a4.008 4.008 0 0 0-1.414 1.049l-18.435 21.419a4.003 4.003 0 0 1-1.909 1.229l-31.97 9.35a3.996 3.996 0 0 1-2.177.02l-33.908-9.267a3.997 3.997 0 0 1-2.415-1.867l-12.018-20.946a3.994 3.994 0 0 0-.909-1.081l-20.204-16.84a4 4 0 0 0-.508-.361Z" fill="url('#paint0_linear_468_6126')"/><g filter="url('#filter0_f_468_6126')"><path d="m6 81 27.326 16.34a4 4 0 0 1 .508.36l20.204 16.841c.365.303.673.67.909 1.081l12.018 20.946a3.997 3.997 0 0 0 2.415 1.867l33.908 9.267a3.996 3.996 0 0 0 2.177-.02l31.97-9.35a4.003 4.003 0 0 0 1.909-1.229l18.435-21.419c.387-.45.871-.809 1.414-1.049l36.937-16.326a4 4 0 0 1 3.574.17L229.153 115l43.258 22.114a3.997 3.997 0 0 0 3.498.07L323.933 115l34.452-11.487a3.999 3.999 0 0 0 2.287-1.954l10.403-20.081c.164-.317.37-.61.612-.873l23.1-25.03c.35-.38.771-.688 1.238-.908l21.879-10.287a4 4 0 0 1 1.702-.38h30.746c.878 0 1.731.289 2.429.822l27.381 20.92c.224.172.466.319.722.44l31.147 14.695c.174.082.354.151.538.208l53.393 16.318c.213.064.43.111.65.14l40.912 5.359c.494.065.997.036 1.481-.084l19.892-4.929a4 4 0 0 0 2.429-1.76L644.865 74.5l24.02-38.613A4 4 0 0 1 672.282 34h28.607a4 4 0 0 0 3.347-1.81l15.628-23.88a4 4 0 0 1 3.347-1.81h33.426a4 4 0 0 1 2.763 1.107l27.234 26.011c.266.253.565.47.889.641l38.84 20.602c.175.092.343.198.502.316l24.172 17.858a4 4 0 0 0 4.183.352l14.243-7.208c.235-.12.482-.215.736-.285l38.684-10.748a4.002 4.002 0 0 1 1.071-.146h26.57a4 4 0 0 1 2.854 1.198L949 66" stroke="#30E0A1" stroke-width="2"/></g><path d="m6 81 27.326 16.34a4 4 0 0 1 .508.36l20.204 16.841c.365.303.673.67.909 1.081l12.018 20.946a3.997 3.997 0 0 0 2.415 1.867l33.908 9.267a3.996 3.996 0 0 0 2.177-.02l31.97-9.35a4.003 4.003 0 0 0 1.909-1.229l18.435-21.419c.387-.45.871-.809 1.414-1.049l36.937-16.326a4 4 0 0 1 3.574.17L229.153 115l43.258 22.114a3.997 3.997 0 0 0 3.498.07L323.933 115l34.452-11.487a3.999 3.999 0 0 0 2.287-1.954l10.403-20.081c.164-.317.37-.61.612-.873l23.1-25.03c.35-.38.771-.688 1.238-.908l21.879-10.287a4 4 0 0 1 1.702-.38h30.746c.878 0 1.731.289 2.429.822l27.381 20.92c.224.172.466.319.722.44l31.147 14.695c.174.082.354.151.538.208l53.393 16.318c.213.064.43.111.65.14l40.912 5.359c.494.065.997.036 1.481-.084l19.892-4.929a4 4 0 0 0 2.429-1.76L644.865 74.5l24.02-38.613A4 4 0 0 1 672.282 34h28.607a4 4 0 0 0 3.347-1.81l15.628-23.88a4 4 0 0 1 3.347-1.81h33.426a4 4 0 0 1 2.763 1.107l27.234 26.011c.266.253.565.47.889.641l38.84 20.602c.175.092.343.198.502.316l24.172 17.858a4 4 0 0 0 4.183.352l14.243-7.208c.235-.12.482-.215.736-.285l38.684-10.748a4.002 4.002 0 0 1 1.071-.146h26.57a4 4 0 0 1 2.854 1.198L949 66" stroke="#30E0A1" stroke-width="2"/><defs><linearGradient id="paint0_linear_468_6126" x1="477.5" y1="6.5" x2="477.5" y2="226" gradientUnits="userSpaceOnUse"><stop stop-color="#30E0A1" stop-opacity=".1"/><stop offset="1" stop-color="#30E0A1" stop-opacity="0"/></linearGradient><filter id="filter0_f_468_6126" x=".486" y=".5" width="954.228" height="153.343" filterUnits="userSpaceOnUse" color-interpolation-filters="sRGB"><feFlood flood-opacity="0" result="BackgroundImageFix"/><feBlend in="SourceGraphic" in2="BackgroundImageFix" result="shape"/><feGaussianBlur stdDeviation="2.5" result="effect1_foregroundBlur_468_6126"/></filter></defs></svg>